<svg width="15" height="18" viewBox="0 0 15 18" fill="none" xmlns="http://www.w3.org/2000/svg">
<path d="M8.83333 0.5H2.16667C1.72464 0.5 1.30072 0.675595 0.988155 0.988155C0.675595 1.30072 0.5 1.72464 0.5 2.16667V15.5C0.5 15.942 0.675595 16.366 0.988155 16.6785C1.30072 16.9911 1.72464 17.1667 2.16667 17.1667H12.1667C12.6087 17.1667 13.0326 16.9911 13.3452 16.6785C13.6577 16.366 13.8333 15.942 13.8333 15.5V5.5M8.83333 0.5L13.8333 5.5M8.83333 0.5L8.83333 5.5H13.8333M10.5 9.66667H3.83333M10.5 13H3.83333M5.5 6.33333H3.83333" stroke="white" stroke-linecap="round" stroke-linejoin="round"/>
</svg>
