<svg width="51" height="51" viewBox="0 0 51 51" fill="none" xmlns="http://www.w3.org/2000/svg">
<path d="M25.5 24.5556C23.7139 24.5561 21.9877 25.1279 20.6369 26.1665C19.2861 27.2052 18.4008 28.6412 18.1429 30.2122C17.8851 31.7832 18.2718 33.3842 19.2325 34.7226C20.1931 36.061 21.6636 37.0474 23.375 37.5015V41.5556C23.375 42.0565 23.5989 42.537 23.9974 42.8912C24.3959 43.2454 24.9364 43.4444 25.5 43.4444C26.0636 43.4444 26.6041 43.2454 27.0026 42.8912C27.4011 42.537 27.625 42.0565 27.625 41.5556V37.5015C29.3364 37.0474 30.8069 36.061 31.7675 34.7226C32.7282 33.3842 33.1149 31.7832 32.8571 30.2122C32.5992 28.6412 31.7139 27.2052 30.3631 26.1665C29.0123 25.1279 27.2861 24.5561 25.5 24.5556ZM25.5 34C24.8696 34 24.2533 33.8338 23.7291 33.5225C23.2049 33.2112 22.7964 32.7687 22.5551 32.2509C22.3139 31.7332 22.2508 31.1635 22.3737 30.6139C22.4967 30.0643 22.8003 29.5594 23.2461 29.1632C23.6919 28.7669 24.2598 28.4971 24.8781 28.3878C25.4965 28.2785 26.1374 28.3346 26.7198 28.549C27.3022 28.7635 27.8001 29.1266 28.1503 29.5926C28.5006 30.0585 28.6875 30.6063 28.6875 31.1667C28.6875 31.9181 28.3517 32.6388 27.7539 33.1701C27.1561 33.7015 26.3454 34 25.5 34ZM46.75 17H38.25V11.3333C38.25 8.32755 36.9067 5.44487 34.5156 3.31946C32.1245 1.19404 28.8815 0 25.5 0C22.1185 0 18.8755 1.19404 16.4844 3.31946C14.0933 5.44487 12.75 8.32755 12.75 11.3333V17H4.25C3.12283 17 2.04183 17.398 1.2448 18.1065C0.447766 18.815 0 19.7759 0 20.7778V47.2222C0 48.2242 0.447766 49.185 1.2448 49.8935C2.04183 50.602 3.12283 51 4.25 51H46.75C47.8772 51 48.9582 50.602 49.7552 49.8935C50.5522 49.185 51 48.2242 51 47.2222V20.7778C51 19.7759 50.5522 18.815 49.7552 18.1065C48.9582 17.398 47.8772 17 46.75 17ZM17 11.3333C17 9.32948 17.8955 7.40769 19.4896 5.99075C21.0837 4.57381 23.2457 3.77778 25.5 3.77778C27.7543 3.77778 29.9163 4.57381 31.5104 5.99075C33.1045 7.40769 34 9.32948 34 11.3333V17H17V11.3333ZM46.75 47.2222H4.25V20.7778H46.75V47.2222Z" fill="#4EDDDF"/>
</svg>
